# xmcd
#
# Track frame offsets:
#	150
#	23708
#	39351
#	52664
#	73277
#	91400
#	123820
#	142580
#	176022
#	196116
#	212431
#	231089
#	247302
#	262418
#	278924
#	293094
#
# Disc length: 4158 seconds
#
# Revision: 1
# Processed by: cddbd v1.5.2PL0 Copyright (c) Steve Scherf et al.
# Submitted via: audiograbber 1.83.01
#
DISCID=e4103c10
DTITLE=Alex Britti - Unplugged
DYEAR=2008
DGENRE=italiana
TTITLE0=Gelido
TTITLE1=Da piccolo
TTITLE2=Una su 1.000.000
TTITLE3=Le cose che ci uniscono
TTITLE4=Prendere o lasciare
TTITLE5=Milano
TTITLE6=Come chiedi scusa
TTITLE7=7000 caffe
TTITLE8=nomi
TTITLE9=Jazz
TTITLE10=Oggi sono io
TTITLE11=L'isola che non c'è
TTITLE12=Favole
TTITLE13=Solo una volta
TTITLE14=Lo zingaro felice
TTITLE15=La vasca
EXTD=fantastico
EXTT0=
EXTT1=
EXTT2=
EXTT3=
EXTT4=
EXTT5=
EXTT6=
EXTT7=
EXTT8=
EXTT9=
EXTT10=
EXTT11=
EXTT12=
EXTT13=
EXTT14=
EXTT15=
PLAYORDER=
